<!--?xml version="1.0" encoding="UTF-8"?-->
<svg width="3510px" height="1813px" viewBox="0 0 3510 1813" version="1.1" xmlns="http://www.w3.org/2000/svg" xmlns:xlink="http://www.w3.org/1999/xlink" style="">
    <title>v-sign</title>
    <g id="Page-1" stroke="none" stroke-width="1" fill="none" fill-rule="evenodd">
        <g id="Artboard" transform="translate(250.000000, -274.000000)" fill-rule="nonzero" stroke="#000000" stroke-width="0.8">
            <g id="v-sign" transform="translate(-248.000000, 276.000000)">
                <path d="M0.662564269,1810 C88.854601,1624.86566 251.608781,1476.01036 446.710295,1410.05491 C559.582851,1371.85898 678.797093,1358.53536 793.515364,1327.36804 C847.348711,1312.71917 900.519493,1294.04717 949.075989,1266.24034 C971.163811,1253.70023 992.030765,1239.122 1011.40436,1222.69602 L1015.30875,1219.3592 L1015.75835,1218.98056 L1015.92399,1218.83857 L1019.21315,1215.99872 L1019.52077,1215.7384 C1038.19088,1199.57494 1058.28078,1180.38231 1066.84679,1157.73453 C1070.46582,1148.82422 1071.14561,1138.99102 1068.78715,1129.66738 C1066.55408,1121.79113 1061.55493,1114.98488 1054.70766,1110.49841 C1041.33806,1101.52923 1025.69681,1104.84238 1018.29029,1119.49126 C1006.97937,1141.80772 1012.44553,1175.72023 1016.04231,1199.26729 C1016.91784,1204.89965 1017.93535,1210.50835 1019.14216,1216.06971 C1024.70713,1241.94239 1033.92559,1266.89132 1046.52026,1290.16605 C1047.1355,1291.30199 1047.75074,1292.53259 1048.38964,1293.5502 L1048.53162,1293.81052 L1048.53162,1293.95251 C1049.33616,1295.3961 1050.16437,1296.83969 1051.01623,1298.25961 L1051.37118,1298.87491 C1051.51316,1299.11157 1051.65514,1299.32456 1051.77345,1299.56121 C1053.61917,1302.71659 1055.54376,1305.7931 1057.54722,1308.79071 L1057.66554,1308.95637 C1058.63572,1310.42362 1059.60591,1311.91454 1060.62342,1313.35813 C1067.5345,1323.55047 1075.40264,1333.05976 1084.12078,1341.7566 L1084.878,1342.51389 L1085.13829,1342.75055 C1090.49198,1348.00601 1096.24341,1352.84022 1102.3413,1357.2101 C1102.3801,1357.20008 1102.42081,1357.20008 1102.45962,1357.2101 C1103.28782,1357.80173 1104.13969,1358.3697 1104.9679,1358.91401 L1105.41749,1359.22166 C1125.56756,1373.20782 1150.12517,1379.36677 1174.48982,1376.54472 C1235.0198,1369.44511 1283.93124,1321.14405 1322.00502,1277.52873 C1431.99069,1151.5342 1488.97122,982.847299 1579.52955,842.085561 C1579.83717,841.612254 1580.14479,841.162611 1580.42875,840.689304 C1628.13338,766.758626 1685.18489,700.613862 1764.14835,652.431128 C1779.15012,643.268094 1794.8198,635.246564 1811.02478,628.434423 L1811.02478,628.434423 C1857.56992,608.886811 1907.04927,599.893963 1958.89492,599.042009 C2029.50534,597.85874 2099.80815,605.076684 2169.63769,591.043108 C2200.71852,584.824563 2230.97841,575.041322 2259.81742,561.887348 L2261.14254,561.295713 L2266.98731,558.550528 L2267.22394,558.550528 L2272.35881,556.018331 C2299.46445,542.507279 2324.75525,525.62649 2347.63084,505.776709 L2351.70088,502.155904 L2351.84286,502.013912 C2352.95502,501.043631 2354.04352,500.026019 2355.15568,498.984742 L2355.98389,498.203784 C2357.52198,496.760195 2359.06008,495.292941 2360.55085,493.802021 C2361.45004,492.973733 2362.32557,492.098113 2363.15378,491.222494 C2390.95188,463.873358 2412.98279,431.226019 2427.9431,395.212008 L2427.9431,395.070016 C2431.3979,386.660914 2434.4662,377.983604 2437.14801,369.038087 C2442.7704,350.358075 2446.23204,331.094795 2447.46508,311.625851 C2447.89102,305.094204 2448.07243,298.554668 2448.00933,292.007243 C2448.00933,289.04907 2448.00933,286.114561 2447.7727,283.156388 C2447.77369,283.088641 2447.73332,283.027123 2447.67079,283.001064 C2447.60825,282.975005 2447.53615,282.989658 2447.48875,283.038061 C2446.35292,284.292326 2445.26442,285.570257 2444.19959,286.871854 C2439.01252,293.246322 2434.62585,300.232318 2431.13761,307.673731 C2430.99563,308.005047 2430.82999,308.312697 2430.71167,308.620347 L2429.55218,311.270871 C2429.54285,311.365302 2429.54285,311.460424 2429.55218,311.554855 C2428.96061,312.974779 2428.53467,314.063387 2428.29804,314.678687 L2427.44618,317.045226 C2426.68896,319.246107 2425.97907,321.470654 2425.36383,323.6952 C2419.16617,347.031829 2419.98929,371.678343 2427.73013,394.549377 C2427.73013,394.762365 2427.87211,394.951689 2427.91944,395.141012 C2436.30216,420.957714 2452.32719,443.61948 2473.873,460.126172 C2514.10012,490.204882 2562.86958,497.35183 2610.90549,491.080502 L2610.90549,491.080502 C2636.89833,487.492949 2662.33787,480.655385 2686.62712,470.728266 L2687.95225,470.183962 C2697.21237,466.429054 2706.17277,462.350718 2714.83343,457.948956 C2760.55036,434.875201 2802.19726,404.725495 2844.57771,376.232365 C2889.17459,346.256205 2934.2684,316.966341 2979.85914,288.362773 C3070.9775,231.234523 3163.87059,177.072334 3258.5384,125.876208 C3340.16001,81.7008137 3422.98054,39.8919586 3507,0.449642404 L3507,0 C3362.22971,68.2825377 3220.91421,143.309712 3083.05352,225.081521 C3003.08832,272.554293 2924.49558,322.251611 2847.27529,374.173476 C2796.70744,408.133311 2745.02743,446.613234 2688.0469,470.302289 L2686.72177,470.846593 C2662.53229,481.066753 2637.05354,487.914858 2611.00014,491.198828 L2611.00014,491.198828 L2606.7408,491.672136 C2532.24965,499.150399 2451.44047,467.083796 2428.08508,395.117346 C2428.08508,394.904358 2427.9431,394.715035 2427.89577,394.525712 C2424.86878,385.02948 2422.90069,375.227705 2422.02735,365.298955 C2420.6654,351.380723 2421.80336,337.331067 2425.38749,323.813527 C2426.00273,321.588981 2426.71262,319.364434 2427.46984,317.163553 L2428.32171,314.797014 C2428.55834,314.181714 2428.98427,313.093106 2429.57585,311.673182 C2429.56651,311.578751 2429.56651,311.483629 2429.57585,311.389198 L2430.73533,308.738674 C2430.73533,308.431024 2431.01929,308.123374 2431.16127,307.792058 C2434.78171,299.580168 2440.62647,287.581816 2444.22325,286.990181 C2444.33261,286.9685 2444.44517,286.9685 2444.55453,286.990181 C2446.44757,286.990181 2447.48875,289.120066 2448.03299,292.172901 C2448.61751,298.711277 2448.43486,305.295604 2447.48875,311.791509 C2447.22845,314.158048 2446.96816,316.09861 2446.89717,316.997895 C2444.50038,343.669705 2438.05312,369.820431 2427.77746,394.549377 C2427.7937,394.595314 2427.7937,394.645432 2427.77746,394.691369 C2421.93582,408.896546 2414.98091,422.617849 2406.97767,435.727155 C2394.66883,455.852396 2380.03957,474.462496 2363.39041,491.175163 L2360.78748,493.754691 C2359.27305,495.24561 2357.75861,496.712864 2356.22052,498.156453 L2355.39231,498.937411 C2354.28015,499.978688 2353.19165,500.9963 2352.07949,501.966581 L2351.93751,502.108573 C2350.58872,503.362839 2349.23993,504.475112 2347.86748,505.729378 C2325.08367,525.699206 2299.77671,542.590778 2272.59544,555.971 C2270.8917,556.870285 2269.18797,557.698574 2267.46057,558.503197 L2267.22394,558.503197 L2261.37917,561.248382 L2260.05405,561.840017 C2240.40621,570.758857 2220.06843,578.0717 2199.24011,583.706837 C2106.12617,609.052469 2012.53897,591.989723 1918.05257,600.698587 C1881.20184,604.144824 1845.14473,613.493608 1811.26141,628.387093 L1811.26141,628.387093 C1715.14226,670.322163 1639.01836,752.370069 1580.66538,840.641973 C1580.38142,841.115281 1580.0738,841.564923 1579.76618,842.038231 C1577.99146,844.71242 1576.2404,847.410274 1574.513,850.108129 C1483.93099,990.917197 1430.71289,1155.24966 1318.07696,1281.76484 C1265.37944,1340.92831 1179.90865,1407.92503 1105.65412,1359.26899 L1105.20453,1358.96134 C1104.37632,1358.41703 1103.52445,1357.84906 1102.69625,1357.25743 C1102.65745,1357.24741 1102.61673,1357.24741 1102.57793,1357.25743 C1096.44077,1352.93835 1090.68534,1348.10077 1085.37492,1342.79788 L1085.11463,1342.56122 L1084.35741,1341.80393 C1075.71759,1333.03602 1067.85559,1323.53415 1060.86005,1313.40546 C1059.84254,1311.96187 1058.87235,1310.47095 1057.90217,1309.0037 L1057.73653,1308.69605 C1055.71729,1305.6511 1053.79269,1302.5746 1051.96275,1299.46655 C1051.84444,1299.22989 1051.70246,1299.01691 1051.56048,1298.78025 L1051.20554,1298.16495 L1048.72092,1293.85785 L1048.72092,1293.71586 L1048.57894,1293.45554 C1036.42849,1271.44778 1027.25383,1247.92391 1021.29549,1223.50065 C1020.68026,1220.94479 1020.08868,1218.38892 1019.54443,1215.8094 C1015.28877,1196.11494 1013.20188,1176.0137 1013.32106,1155.86496 C1013.32106,1145.52319 1013.15542,1133.85615 1016.89417,1124.08235 C1026.71432,1098.52372 1055.34656,1103.23314 1066.34986,1123.7747 C1067.36991,1125.65849 1068.21735,1127.63077 1068.88181,1129.66738 C1078.82027,1159.72242 1046.44927,1193.01963 1019.54443,1215.8094 L1019.23681,1216.06971 L1015.92399,1218.83857 L1015.75835,1218.98056 L1015.30875,1219.3592 C1009.393,1224.23427 1003.85586,1228.56504 999.312558,1232.13851 C969.869868,1254.94433 937.720291,1274.0214 903.595684,1288.93545 C834.594348,1319.70046 760.339824,1336.66854 686.676875,1352.05104 C614.717663,1367.10223 542.166876,1380.30752 471.745759,1401.74836 C401.784319,1423.00523 335.276833,1454.30133 274.301607,1494.65868 C156.069679,1573.06849 61.279958,1682.0402 0,1810 L0.662564269,1810 Z" id="Path" class="hcFmbMBB_0"></path>
            </g>
        </g>
    </g>
<style>

@media only screen and (max-width:768px){
    #Artboard{
        stroke-width:7;
        opacity:0.5;
        stroke:rgba(0,0,0,0.8);
    }
}

.hcFmbMBB_0{stroke-dasharray:9856 9858;stroke-dashoffset:9857;animation:hcFmbMBB_draw 4500ms ease-in-out 0ms forwards;}@keyframes hcFmbMBB_draw{100%{stroke-dashoffset:0;}}@keyframes hcFmbMBB_fade{0%{stroke-opacity:1;}95.65217391304348%{stroke-opacity:1;}100%{stroke-opacity:0;}}</style></svg>